<?xml version="1.0" standalone="no"?>
<!DOCTYPE svg PUBLIC "-//W3C//DTD SVG 20010904//EN"
 "http://www.w3.org/TR/2001/REC-SVG-20010904/DTD/svg10.dtd">
<svg version="1.0" xmlns="http://www.w3.org/2000/svg"
 width="1305.605968pt" height="1241.572310pt" viewBox="0 0 1305.605968 1241.572310"
 preserveAspectRatio="xMidYMid meet">

<g transform="translate(-324.009314,1634.911869) scale(0.100000,-0.100000)"
fill="#000000" stroke="none">
<path d="M6823 16336 c-135 -27 -271 -121 -349 -243 -64 -98 -87 -183 -107
-393 l-12 -124 -35 -8 c-19 -4 -84 -12 -145 -18 -239 -24 -365 -55 -500 -122
-168 -85 -280 -179 -332 -282 l-25 -48 28 -29 c32 -34 27 -55 -18 -64 -50 -11
-244 -105 -335 -164 -175 -112 -256 -248 -257 -431 -1 -77 2 -89 27 -125 32
-46 32 -46 12 -113 -15 -50 -88 -165 -203 -322 -74 -101 -204 -272 -217 -287
-5 -6 -68 -81 -140 -166 -71 -86 -134 -156 -139 -156 -6 -1 -33 23 -61 53 -85
89 -166 118 -392 138 -73 6 -133 16 -133 21 0 10 45 74 65 92 6 6 31 35 56 65
24 30 62 75 85 100 114 124 322 374 360 433 39 60 95 118 143 149 41 25 53 28
136 28 130 0 130 -1 130 152 0 70 6 141 13 166 18 59 123 186 207 250 83 62
218 142 295 173 51 21 94 25 269 29 12 0 -35 40 -60 50 -35 15 -38 42 -10 118
51 138 207 329 338 412 99 63 259 95 623 122 l165 13 3 26 c5 42 -19 56 -105
65 -124 11 -503 -4 -618 -25 -55 -10 -155 -28 -222 -41 -67 -12 -133 -20 -146
-16 -18 4 -30 22 -50 73 -79 200 -254 368 -410 393 -66 10 -163 -4 -225 -32
-155 -72 -263 -288 -249 -494 10 -141 91 -296 229 -438 38 -39 68 -73 68 -77
0 -12 -111 -103 -230 -189 -159 -115 -205 -155 -257 -225 -57 -75 -77 -120
-97 -216 -10 -48 -28 -97 -51 -134 -20 -34 -35 -72 -35 -89 0 -33 37 -119 70
-166 33 -46 25 -84 -39 -175 -28 -40 -178 -223 -201 -245 -3 -3 -27 -32 -55
-65 -27 -33 -58 -69 -69 -80 -10 -11 -42 -51 -72 -90 -29 -38 -61 -80 -71 -93
-10 -12 -43 -31 -73 -43 -106 -40 -160 -100 -160 -179 0 -65 16 -111 57 -172
36 -51 37 -55 33 -123 -10 -165 -10 -168 53 -234 l57 -60 0 -89 c0 -60 4 -93
13 -99 6 -6 75 -13 153 -17 144 -7 408 -37 479 -55 22 -6 60 -11 85 -11 93 0
115 13 265 159 147 143 299 255 361 267 56 10 109 -32 129 -102 10 -39 -36
-78 -146 -124 -114 -49 -241 -122 -305 -177 -149 -127 -141 -125 -302 -93 -54
11 -154 24 -221 30 -67 5 -151 18 -186 27 -59 16 -65 16 -89 0 -41 -27 -34
-57 27 -114 57 -54 110 -73 205 -73 26 0 92 -7 147 -15 139 -22 270 -22 336 0
30 10 59 21 64 25 26 19 147 60 177 60 27 0 44 -10 86 -51 52 -53 66 -71 144
-194 105 -165 292 -376 468 -526 81 -70 209 -159 227 -159 22 0 26 27 8 62 -9
18 -19 54 -22 80 -8 65 11 71 74 25 57 -41 451 -278 608 -364 211 -116 483
-243 521 -243 21 0 17 14 -12 41 -69 64 -200 242 -248 338 -40 79 -28 91 38
38 51 -42 249 -168 504 -321 206 -123 304 -217 506 -481 149 -194 306 -456
306 -510 0 -8 4 -15 9 -15 14 0 21 27 21 79 0 79 36 294 76 461 56 228 138
414 274 617 114 172 266 331 291 306 10 -10 -3 -57 -66 -218 -36 -93 -122
-354 -138 -420 -3 -11 -14 -54 -25 -95 -63 -237 -85 -433 -79 -705 11 -433 89
-742 295 -1160 124 -252 279 -505 341 -557 17 -15 49 -29 71 -33 23 -4 44 -13
46 -20 7 -17 -15 -60 -92 -177 -35 -53 -64 -99 -64 -101 0 -2 -23 -44 -51 -93
-65 -113 -160 -303 -232 -464 -124 -278 -197 -561 -239 -930 -5 -47 -13 -281
-18 -520 -8 -456 -10 -481 -60 -630 -45 -136 -124 -244 -258 -351 -42 -34 -96
-70 -120 -80 -55 -24 -151 -25 -293 -3 -198 30 -375 2 -572 -91 -32 -15 -60
-25 -63 -22 -15 15 71 97 148 140 96 55 186 86 384 132 78 19 163 44 190 56
96 46 197 179 245 324 45 135 51 201 59 670 9 477 13 530 54 775 41 239 100
422 214 660 70 146 163 307 252 437 44 64 80 123 80 129 0 7 -17 30 -38 51
-114 114 -237 288 -343 486 -45 85 -71 123 -91 133 -39 20 -166 150 -242 248
-257 329 -472 833 -492 1151 -4 55 -11 106 -17 113 -6 7 -68 42 -139 78 -71
35 -147 76 -168 89 -22 14 -42 25 -44 25 -6 0 -304 192 -393 253 -87 61 -289
187 -299 187 -3 0 -26 14 -51 30 -77 53 -76 54 -97 -152 -28 -282 -35 -449
-25 -618 24 -396 131 -720 355 -1068 41 -64 77 -127 81 -140 5 -22 2 -44 -32
-192 -56 -243 -84 -645 -67 -935 7 -104 15 -192 20 -197 4 -4 51 56 103 135
53 78 102 142 110 142 10 0 16 -18 21 -60 27 -240 33 -273 81 -465 80 -314
199 -642 387 -1065 12 -27 49 -115 82 -195 52 -127 76 -189 133 -342 8 -20 17
-65 21 -100 19 -190 -92 -385 -267 -470 -117 -57 -142 -60 -294 -36 -341 53
-613 -26 -842 -246 -113 -107 -187 -239 -229 -404 -29 -115 -7 -120 88 -17 82
87 156 139 222 156 71 18 75 5 26 -82 -49 -86 -96 -218 -87 -242 10 -27 32
-20 130 42 51 32 127 71 168 85 82 29 239 58 252 46 5 -4 -6 -34 -24 -66 -86
-158 -103 -208 -115 -344 -6 -60 -5 -70 10 -76 19 -7 35 7 96 86 62 80 84 99
163 140 72 37 115 48 129 34 4 -3 -11 -40 -33 -82 -22 -42 -43 -99 -48 -127
-11 -59 -3 -145 14 -151 7 -3 50 22 96 55 123 89 211 131 269 131 70 0 80 -6
80 -49 0 -78 60 -108 189 -97 102 10 156 33 270 117 l29 22 79 -34 c74 -32 85
-34 223 -37 80 -2 313 1 517 6 l373 11 51 27 c63 35 108 88 151 179 l32 70 7
225 c8 249 16 291 76 398 46 83 190 233 400 413 429 371 592 525 744 699 110
126 179 234 162 251 -5 5 -49 -2 -103 -16 -52 -13 -124 -31 -160 -40 -36 -8
-79 -20 -96 -25 -35 -11 -64 -13 -64 -4 0 4 69 75 153 158 135 134 246 255
413 451 164 192 288 440 315 632 13 89 6 401 -11 502 -52 306 -70 604 -51 821
19 211 42 311 146 625 89 268 115 357 150 520 58 272 60 615 5 953 -20 122
-61 316 -82 387 -11 39 -23 85 -28 104 -5 19 -16 41 -25 50 -16 15 -17 11 -11
-70 12 -173 -38 -343 -186 -634 -92 -181 -162 -296 -382 -625 -145 -215 -226
-361 -330 -592 -32 -71 -84 -223 -105 -308 -43 -176 -52 -252 -58 -495 -5
-231 -13 -299 -33 -279 -19 20 -56 128 -96 284 -49 191 -68 555 -39 759 46
321 135 532 446 1057 173 292 282 554 364 869 108 416 111 719 15 1210 -43
221 -156 520 -326 868 -58 118 -74 161 -66 169 9 9 17 7 34 -8 13 -12 43 -38
68 -60 172 -150 342 -339 435 -484 107 -167 249 -476 282 -616 10 -41 21 -74
25 -74 16 0 30 109 35 275 12 404 -67 736 -272 1143 -113 225 -280 495 -409
662 -116 150 -405 452 -464 484 -9 5 -47 34 -84 64 -63 50 -77 70 -63 84 9 9
267 -99 600 -252 396 -181 636 -282 750 -314 93 -26 222 -53 506 -105 551
-102 981 -267 1443 -556 316 -196 560 -408 760 -658 454 -570 676 -1235 601
-1808 -47 -359 -207 -705 -540 -1169 -506 -703 -746 -1270 -773 -1828 -8 -158
2 -455 18 -557 84 -514 214 -843 488 -1240 76 -110 212 -284 296 -380 39 -45
108 -123 153 -175 45 -52 95 -111 113 -130 17 -19 84 -101 149 -181 154 -190
166 -218 166 -394 0 -123 -1 -133 -28 -184 -33 -62 -103 -134 -160 -163 -40
-20 -42 -20 -156 -2 -291 44 -415 26 -644 -94 -216 -112 -405 -331 -450 -522
-25 -106 -30 -165 -13 -179 12 -10 21 -2 54 46 69 101 203 212 294 244 61 21
66 4 24 -80 -69 -137 -102 -271 -74 -299 22 -22 46 -13 130 47 99 70 146 97
205 117 59 20 99 16 96 -11 -1 -11 2 -37 8 -57 8 -30 19 -42 52 -59 36 -19 52
-21 123 -16 114 8 184 38 310 131 8 7 31 1 68 -17 96 -47 126 -49 689 -38 538
11 544 11 624 54 37 19 103 99 135 161 30 58 34 174 13 351 -12 100 -16 180
-12 257 9 186 38 266 180 490 165 261 197 344 204 533 5 110 2 144 -15 211
-18 71 -79 210 -142 319 -53 93 -79 146 -124 255 -27 63 -61 141 -77 173 -24
46 -27 59 -15 63 7 3 66 -28 130 -68 64 -40 140 -88 168 -105 31 -20 56 -29
61 -24 11 11 -4 60 -50 160 -39 85 -101 238 -139 344 -30 84 -114 362 -114
377 0 21 30 8 141 -63 135 -87 207 -127 225 -127 19 0 26 17 15 37 -34 60
-251 698 -325 956 -82 285 -99 379 -116 645 -10 153 -9 172 12 172 16 0 123
-119 155 -172 15 -26 33 -48 40 -48 30 0 29 502 -2 804 -8 81 -12 152 -9 157
10 17 24 9 46 -25 54 -80 110 -146 119 -141 13 8 11 69 -6 210 -13 110 -66
454 -85 550 -4 22 -13 67 -19 100 -31 159 -124 500 -188 685 -115 336 -305
728 -500 1033 -48 75 -196 277 -229 312 -11 11 -48 54 -83 95 -35 41 -98 111
-139 155 -41 44 -142 161 -225 260 -175 209 -567 606 -712 722 -224 179 -368
272 -580 375 -522 254 -950 340 -1605 322 -366 -9 -623 14 -780 70 -25 9 -65
24 -90 32 -102 35 -295 141 -457 252 -327 223 -428 290 -525 346 -417 244
-807 313 -1323 235 -38 -6 -110 -17 -160 -24 -49 -8 -128 -20 -175 -26 -112
-17 -396 -16 -485 1 -81 15 -220 45 -287 60 -25 6 -64 10 -85 8 -32 -3 -37 -6
-34 -23 2 -11 4 -58 4 -105 0 -66 -6 -100 -25 -150 -28 -73 -81 -161 -140
-231 -21 -26 -38 -53 -38 -61 0 -17 37 -52 165 -155 157 -127 343 -327 430
-463 145 -226 226 -405 288 -635 22 -81 30 -118 52 -260 10 -62 7 -342 -5
-425 -26 -187 -74 -317 -174 -479 -101 -163 -242 -312 -382 -405 -32 -21 -71
-47 -86 -57 -15 -11 -30 -19 -32 -19 -3 0 -29 -15 -58 -34 -99 -62 -315 -147
-458 -179 -229 -52 -477 -42 -703 27 -114 36 -291 136 -272 155 4 3 88 6 188
7 248 2 401 34 580 124 87 44 116 64 230 159 162 134 290 352 333 562 26 130
15 357 -25 509 -43 166 -85 279 -164 440 -16 32 -134 240 -150 262 -8 13 -9
20 0 29 15 15 77 -22 169 -99 159 -134 453 -557 489 -704 4 -16 12 -28 18 -28
6 0 8 35 4 103 -18 304 -64 533 -144 707 -14 30 -33 75 -43 100 -17 42 -50
107 -108 210 -52 92 -190 278 -294 395 -65 72 -108 129 -108 141 0 13 12 29
28 40 91 60 212 207 266 325 58 128 70 181 71 319 l0 125 -41 85 c-56 116
-107 170 -200 215 -60 29 -190 68 -214 64 -3 -1 -33 -6 -67 -13z m-1496 -632
c2 -6 -31 -25 -74 -43 -89 -36 -354 -199 -430 -264 -29 -25 -69 -55 -90 -68
-21 -13 -55 -36 -76 -53 -63 -50 -66 -25 -12 104 59 138 93 184 170 227 63 35
74 38 245 84 111 29 259 37 267 13z m3172 -1464 c104 -103 211 -259 291 -425
112 -232 143 -359 144 -580 1 -200 -24 -306 -110 -462 -90 -163 -281 -365
-449 -475 -181 -118 -418 -238 -471 -238 -13 0 -24 3 -24 7 0 3 34 38 75 76
185 170 389 459 478 677 131 323 142 689 32 1110 -28 108 -71 228 -133 372
-33 76 -57 139 -55 142 5 5 95 -78 222 -204z m-3266 61 c16 -16 -2 -46 -45
-74 -51 -33 -82 -34 -102 -5 -21 29 -21 31 11 68 25 30 30 32 77 26 27 -3 54
-10 59 -15z m-1504 -1226 c36 -18 55 -64 46 -111 -7 -41 -54 -94 -82 -94 -28
0 -92 57 -108 97 -20 47 -19 65 6 97 17 21 29 26 65 26 25 0 58 -7 73 -15z
m1913 -959 c57 -15 320 -113 381 -142 71 -34 17 -56 -83 -34 -174 38 -388 142
-366 178 9 15 4 15 68 -2z"/>
<path d="M13356 11511 c-4 -6 -2 -55 4 -108 21 -198 -12 -362 -134 -667 -129
-321 -274 -567 -531 -901 -122 -159 -183 -223 -414 -443 -190 -179 -298 -272
-451 -384 -41 -30 -106 -81 -144 -112 -102 -83 -108 -77 -43 47 114 217 161
388 193 707 27 270 -1 544 -83 815 -52 173 -131 366 -152 373 -11 4 -12 -2 -7
-24 45 -191 50 -238 50 -499 0 -207 -4 -280 -18 -360 -43 -239 -118 -458 -286
-830 -53 -118 -106 -309 -129 -465 -32 -226 -34 -651 -2 -683 19 -19 281 19
480 69 344 87 559 179 830 353 75 49 150 96 168 105 17 9 35 20 38 26 3 5 17
74 31 152 48 273 114 489 224 733 15 33 37 83 50 110 12 28 89 185 170 350 81
165 159 327 173 360 81 194 137 447 137 614 0 166 -54 458 -111 603 -23 60
-34 74 -43 59z"/>
<path d="M12700 8131 c-36 -15 -99 -44 -140 -63 -395 -186 -634 -241 -1232
-284 -49 -4 -92 -12 -98 -18 -6 -8 -6 -41 0 -97 27 -235 0 -408 -91 -594 -39
-79 -185 -291 -244 -357 -58 -63 -135 -171 -135 -189 0 -10 23 -58 51 -106 66
-115 238 -459 274 -548 80 -199 71 -395 -23 -512 -69 -84 -141 -104 -302 -78
-169 26 -214 28 -302 15 -105 -16 -152 -31 -258 -83 -72 -35 -101 -58 -195
-152 -118 -118 -162 -183 -201 -293 -26 -75 -49 -215 -39 -233 10 -15 30 5 76
73 44 64 102 124 139 143 14 7 45 16 69 20 40 7 43 6 36 -11 -14 -36 -48 -189
-49 -224 -1 -31 2 -35 26 -38 19 -2 48 9 87 33 59 37 177 79 251 91 38 6 40 5
40 -19 0 -61 74 -92 204 -84 100 5 176 29 248 77 57 39 89 38 201 -7 l92 -38
465 3 c275 2 487 7 519 14 30 5 72 21 93 34 50 32 104 117 125 196 14 55 14
76 3 163 -36 284 -28 307 177 578 142 188 157 218 161 332 3 67 -2 118 -18
191 -42 191 -43 258 -6 362 30 84 157 297 296 497 42 61 80 119 84 129 4 13
-12 58 -52 140 -95 195 -179 435 -206 586 -17 94 -35 248 -39 324 -1 27 -6 51
-12 52 -5 2 -39 -9 -75 -25z"/>
</g>
</svg>
